<svg id="Capa_1" data-name="Capa 1" xmlns="http://www.w3.org/2000/svg" viewBox="0 0 337.95 59.02"><defs><style>.cls-1{fill:#09357A;}</style></defs><path class="cls-1" d="M25.76,46.62H2.21s-3.88-.19-1.36,3.57l5.84,8.44a.47.47,0,0,0,.4.22H30.7s14,.71,18.15-11.65A14.93,14.93,0,0,0,42.8,31.14L28.1,21.2a5.88,5.88,0,0,1-2.54-5s.44-3.76,5.85-3.76H49.66s3,.15.34-3.56L44.45.33A.7.7,0,0,0,43.86,0h-21s-17,0-17,14.22c0,0-.56,9,11.7,16.78l10.59,8a4.35,4.35,0,0,1,1.5,3.67s0,4-3.89,4" transform="translate(0 0.01)"/><path class="cls-1" d="M140.09,46.64H116.55s-3.89-.18-1.36,3.58L121,58.55a.75.75,0,0,0,.61.32H145s13.95.71,18.13-11.59v-.09a14.91,14.91,0,0,0-6.06-16l-14.7-9.94a5.88,5.88,0,0,1-2.53-4.92V16.2c.1-.53.88-3.68,5.84-3.68H164s3,.14.34-3.56L158.79.37a.73.73,0,0,0-.62-.34h-21s-17,0-17,14.24c0,0-.56,9,11.69,16.77h0l10.62,8A4.38,4.38,0,0,1,144,42.67s0,4-3.9,4" transform="translate(0 0.01)"/><path class="cls-1" d="M102.7,0h13.12s2.29,0,.27,3.22L96,33.18a4.18,4.18,0,0,0-.57,2.42V56.08s.19,2.77-2,2.77H78s-2.19.16-2.19-2.72V35.6a7.9,7.9,0,0,0-.28-2.42L55.81,3.26S53.35,0,56.35,0H70.67s2.59-.11,4.55,3.26L85,18.39s1.23,2,2.43,0l9.9-15.12S99.15,0,102.69,0" transform="translate(0 0.01)"/><path class="cls-1" d="M177.65,12.48H187s2.65,0,2.65,2.42V56.84S189.53,59,192.18,59h15a2,2,0,0,0,1.9-2V15s-.33-2.42,2.8-2.42H226s2.1.24,2.1-2.86V3.26S228.1,0,225.42,0H171.14s-3.58-.23-1.52,3.24L174.7,11a3.85,3.85,0,0,0,3,1.53" transform="translate(0 0.01)"/><path class="cls-1" d="M280.8,47.85v8.59a2,2,0,0,1-1.88,2.11H239.21a2,2,0,0,1-2.15-1.7V2.56C237.06-.07,239.9,0,239.9,0h37c4.48,0,1.88,3.25,1.88,3.25l-5.53,8a4.53,4.53,0,0,1-3.41,1.43H258.2c-3.21,0-3.18,2.6-3.18,2.6v5.14c0,2.41,2.59,2.34,2.59,2.34h12.17a2,2,0,0,1,2.13,1.86h0a2.81,2.81,0,0,1,0,.41v7.54a2,2,0,0,1-1.77,2.2H258c-2.86,0-2.92,2.38-2.92,2.38v6.18c0,2.6,2.79,2.44,2.79,2.44H278.7a2,2,0,0,1,2.13,1.86h0v.13" transform="translate(0 0.01)"/><path class="cls-1" d="M293.84,0a3,3,0,0,0-2.92,3.08h0V56.53S290.75,59,293.7,59h34.16s3.09,0,4.42-2.18l5.17-8.7s2.06-2.76-2.21-2.76H312.87s-3.6.18-3.6-3.14v-39A2.93,2.93,0,0,0,306.7,0h0a2.81,2.81,0,0,0-.58,0Z" transform="translate(0 0.01)"/></svg>